<svg width="1280" height="720" viewBox="0 0 1280 720" fill="none" xmlns="http://www.w3.org/2000/svg">
<rect width="1280" height="720" fill="white"/>
<path d="M43.408 183.16H59.792C63.888 183.16 67.3013 184.696 70.032 187.768C73.104 190.499 74.64 193.912 74.64 198.008V214.392C74.64 218.488 73.104 222.072 70.032 225.144C67.3013 227.875 63.888 229.24 59.792 229.24H43.408C39.312 229.24 35.728 227.875 32.656 225.144C29.9253 222.072 28.56 218.488 28.56 214.392V198.008C28.56 193.912 29.9253 190.499 32.656 187.768C35.728 184.696 39.312 183.16 43.408 183.16ZM94.608 183.16H110.992C115.088 183.16 118.501 184.696 121.232 187.768C124.304 190.499 125.84 193.912 125.84 198.008V214.392C125.84 218.488 124.304 222.072 121.232 225.144C118.501 227.875 115.088 229.24 110.992 229.24H94.608C90.512 229.24 86.928 227.875 83.856 225.144C81.1253 222.072 79.76 218.488 79.76 214.392V198.008C79.76 193.912 81.1253 190.499 83.856 187.768C86.928 184.696 90.512 183.16 94.608 183.16ZM145.808 183.16H162.192C166.288 183.16 169.701 184.696 172.432 187.768C175.504 190.499 177.04 193.912 177.04 198.008V214.392C177.04 218.488 175.504 222.072 172.432 225.144C169.701 227.875 166.288 229.24 162.192 229.24H145.808C141.712 229.24 138.128 227.875 135.056 225.144C132.325 222.072 130.96 218.488 130.96 214.392V198.008C130.96 193.912 132.325 190.499 135.056 187.768C138.128 184.696 141.712 183.16 145.808 183.16ZM197.008 183.16H213.392C217.488 183.16 220.901 184.696 223.632 187.768C226.704 190.499 228.24 193.912 228.24 198.008V214.392C228.24 218.488 226.704 222.072 223.632 225.144C220.901 227.875 217.488 229.24 213.392 229.24H197.008C192.912 229.24 189.328 227.875 186.256 225.144C183.525 222.072 182.16 218.488 182.16 214.392V198.008C182.16 193.912 183.525 190.499 186.256 187.768C189.328 184.696 192.912 183.16 197.008 183.16ZM248.208 183.16H264.592C268.688 183.16 272.101 184.696 274.832 187.768C277.904 190.499 279.44 193.912 279.44 198.008V214.392C279.44 218.488 277.904 222.072 274.832 225.144C272.101 227.875 268.688 229.24 264.592 229.24H248.208C244.112 229.24 240.528 227.875 237.456 225.144C234.725 222.072 233.36 218.488 233.36 214.392V198.008C233.36 193.912 234.725 190.499 237.456 187.768C240.528 184.696 244.112 183.16 248.208 183.16ZM145.808 234.36H162.192C166.288 234.36 169.701 235.896 172.432 238.968C175.504 241.699 177.04 245.112 177.04 249.208V265.592C177.04 269.688 175.504 273.272 172.432 276.344C169.701 279.075 166.288 280.44 162.192 280.44H145.808C141.712 280.44 138.128 279.075 135.056 276.344C132.325 273.272 130.96 269.688 130.96 265.592V249.208C130.96 245.112 132.325 241.699 135.056 238.968C138.128 235.896 141.712 234.36 145.808 234.36ZM145.808 285.56H162.192C166.288 285.56 169.701 287.096 172.432 290.168C175.504 292.899 177.04 296.312 177.04 300.408V316.792C177.04 320.888 175.504 324.472 172.432 327.544C169.701 330.275 166.288 331.64 162.192 331.64H145.808C141.712 331.64 138.128 330.275 135.056 327.544C132.325 324.472 130.96 320.888 130.96 316.792V300.408C130.96 296.312 132.325 292.899 135.056 290.168C138.128 287.096 141.712 285.56 145.808 285.56ZM145.808 336.76H162.192C166.288 336.76 169.701 338.296 172.432 341.368C175.504 344.099 177.04 347.512 177.04 351.608V367.992C177.04 372.088 175.504 375.672 172.432 378.744C169.701 381.475 166.288 382.84 162.192 382.84H145.808C141.712 382.84 138.128 381.475 135.056 378.744C132.325 375.672 130.96 372.088 130.96 367.992V351.608C130.96 347.512 132.325 344.099 135.056 341.368C138.128 338.296 141.712 336.76 145.808 336.76ZM145.808 387.96H162.192C166.288 387.96 169.701 389.496 172.432 392.568C175.504 395.299 177.04 398.712 177.04 402.808V419.192C177.04 423.288 175.504 426.872 172.432 429.944C169.701 432.675 166.288 434.04 162.192 434.04H145.808C141.712 434.04 138.128 432.675 135.056 429.944C132.325 426.872 130.96 423.288 130.96 419.192V402.808C130.96 398.712 132.325 395.299 135.056 392.568C138.128 389.496 141.712 387.96 145.808 387.96ZM145.808 439.16H162.192C166.288 439.16 169.701 440.696 172.432 443.768C175.504 446.499 177.04 449.912 177.04 454.008V470.392C177.04 474.488 175.504 478.072 172.432 481.144C169.701 483.875 166.288 485.24 162.192 485.24H145.808C141.712 485.24 138.128 483.875 135.056 481.144C132.325 478.072 130.96 474.488 130.96 470.392V454.008C130.96 449.912 132.325 446.499 135.056 443.768C138.128 440.696 141.712 439.16 145.808 439.16ZM145.808 490.36H162.192C166.288 490.36 169.701 491.896 172.432 494.968C175.504 497.699 177.04 501.112 177.04 505.208V521.592C177.04 525.688 175.504 529.272 172.432 532.344C169.701 535.075 166.288 536.44 162.192 536.44H145.808C141.712 536.44 138.128 535.075 135.056 532.344C132.325 529.272 130.96 525.688 130.96 521.592V505.208C130.96 501.112 132.325 497.699 135.056 494.968C138.128 491.896 141.712 490.36 145.808 490.36ZM350.408 183.16H366.792C370.888 183.16 374.301 184.696 377.032 187.768C380.104 190.499 381.64 193.912 381.64 198.008V214.392C381.64 218.488 380.104 222.072 377.032 225.144C374.301 227.875 370.888 229.24 366.792 229.24H350.408C346.312 229.24 342.728 227.875 339.656 225.144C336.925 222.072 335.56 218.488 335.56 214.392V198.008C335.56 193.912 336.925 190.499 339.656 187.768C342.728 184.696 346.312 183.16 350.408 183.16ZM555.208 183.16H571.592C575.688 183.16 579.101 184.696 581.832 187.768C584.904 190.499 586.44 193.912 586.44 198.008V214.392C586.44 218.488 584.904 222.072 581.832 225.144C579.101 227.875 575.688 229.24 571.592 229.24H555.208C551.112 229.24 547.528 227.875 544.456 225.144C541.725 222.072 540.36 218.488 540.36 214.392V198.008C540.36 193.912 541.725 190.499 544.456 187.768C547.528 184.696 551.112 183.16 555.208 183.16ZM350.408 234.36H366.792C370.888 234.36 374.301 235.896 377.032 238.968C380.104 241.699 381.64 245.112 381.64 249.208V265.592C381.64 269.688 380.104 273.272 377.032 276.344C374.301 279.075 370.888 280.44 366.792 280.44H350.408C346.312 280.44 342.728 279.075 339.656 276.344C336.925 273.272 335.56 269.688 335.56 265.592V249.208C335.56 245.112 336.925 241.699 339.656 238.968C342.728 235.896 346.312 234.36 350.408 234.36ZM555.208 234.36H571.592C575.688 234.36 579.101 235.896 581.832 238.968C584.904 241.699 586.44 245.112 586.44 249.208V265.592C586.44 269.688 584.904 273.272 581.832 276.344C579.101 279.075 575.688 280.44 571.592 280.44H555.208C551.112 280.44 547.528 279.075 544.456 276.344C541.725 273.272 540.36 269.688 540.36 265.592V249.208C540.36 245.112 541.725 241.699 544.456 238.968C547.528 235.896 551.112 234.36 555.208 234.36ZM350.408 285.56H366.792C370.888 285.56 374.301 287.096 377.032 290.168C380.104 292.899 381.64 296.312 381.64 300.408V316.792C381.64 320.888 380.104 324.472 377.032 327.544C374.301 330.275 370.888 331.64 366.792 331.64H350.408C346.312 331.64 342.728 330.275 339.656 327.544C336.925 324.472 335.56 320.888 335.56 316.792V300.408C335.56 296.312 336.925 292.899 339.656 290.168C342.728 287.096 346.312 285.56 350.408 285.56ZM401.608 285.56H417.992C422.088 285.56 425.501 287.096 428.232 290.168C431.304 292.899 432.84 296.312 432.84 300.408V316.792C432.84 320.888 431.304 324.472 428.232 327.544C425.501 330.275 422.088 331.64 417.992 331.64H401.608C397.512 331.64 393.928 330.275 390.856 327.544C388.125 324.472 386.76 320.888 386.76 316.792V300.408C386.76 296.312 388.125 292.899 390.856 290.168C393.928 287.096 397.512 285.56 401.608 285.56ZM555.208 285.56H571.592C575.688 285.56 579.101 287.096 581.832 290.168C584.904 292.899 586.44 296.312 586.44 300.408V316.792C586.44 320.888 584.904 324.472 581.832 327.544C579.101 330.275 575.688 331.64 571.592 331.64H555.208C551.112 331.64 547.528 330.275 544.456 327.544C541.725 324.472 540.36 320.888 540.36 316.792V300.408C540.36 296.312 541.725 292.899 544.456 290.168C547.528 287.096 551.112 285.56 555.208 285.56ZM350.408 336.76H366.792C370.888 336.76 374.301 338.296 377.032 341.368C380.104 344.099 381.64 347.512 381.64 351.608V367.992C381.64 372.088 380.104 375.672 377.032 378.744C374.301 381.475 370.888 382.84 366.792 382.84H350.408C346.312 382.84 342.728 381.475 339.656 378.744C336.925 375.672 335.56 372.088 335.56 367.992V351.608C335.56 347.512 336.925 344.099 339.656 341.368C342.728 338.296 346.312 336.76 350.408 336.76ZM452.808 336.76H469.192C473.288 336.76 476.701 338.296 479.432 341.368C482.504 344.099 484.04 347.512 484.04 351.608V367.992C484.04 372.088 482.504 375.672 479.432 378.744C476.701 381.475 473.288 382.84 469.192 382.84H452.808C448.712 382.84 445.128 381.475 442.056 378.744C439.325 375.672 437.96 372.088 437.96 367.992V351.608C437.96 347.512 439.325 344.099 442.056 341.368C445.128 338.296 448.712 336.76 452.808 336.76ZM555.208 336.76H571.592C575.688 336.76 579.101 338.296 581.832 341.368C584.904 344.099 586.44 347.512 586.44 351.608V367.992C586.44 372.088 584.904 375.672 581.832 378.744C579.101 381.475 575.688 382.84 571.592 382.84H555.208C551.112 382.84 547.528 381.475 544.456 378.744C541.725 375.672 540.36 372.088 540.36 367.992V351.608C540.36 347.512 541.725 344.099 544.456 341.368C547.528 338.296 551.112 336.76 555.208 336.76ZM350.408 387.96H366.792C370.888 387.96 374.301 389.496 377.032 392.568C380.104 395.299 381.64 398.712 381.64 402.808V419.192C381.64 423.288 380.104 426.872 377.032 429.944C374.301 432.675 370.888 434.04 366.792 434.04H350.408C346.312 434.04 342.728 432.675 339.656 429.944C336.925 426.872 335.56 423.288 335.56 419.192V402.808C335.56 398.712 336.925 395.299 339.656 392.568C342.728 389.496 346.312 387.96 350.408 387.96ZM504.008 387.96H520.392C524.488 387.96 527.901 389.496 530.632 392.568C533.704 395.299 535.24 398.712 535.24 402.808V419.192C535.24 423.288 533.704 426.872 530.632 429.944C527.901 432.675 524.488 434.04 520.392 434.04H504.008C499.912 434.04 496.328 432.675 493.256 429.944C490.525 426.872 489.16 423.288 489.16 419.192V402.808C489.16 398.712 490.525 395.299 493.256 392.568C496.328 389.496 499.912 387.96 504.008 387.96ZM555.208 387.96H571.592C575.688 387.96 579.101 389.496 581.832 392.568C584.904 395.299 586.44 398.712 586.44 402.808V419.192C586.44 423.288 584.904 426.872 581.832 429.944C579.101 432.675 575.688 434.04 571.592 434.04H555.208C551.112 434.04 547.528 432.675 544.456 429.944C541.725 426.872 540.36 423.288 540.36 419.192V402.808C540.36 398.712 541.725 395.299 544.456 392.568C547.528 389.496 551.112 387.96 555.208 387.96ZM350.408 439.16H366.792C370.888 439.16 374.301 440.696 377.032 443.768C380.104 446.499 381.64 449.912 381.64 454.008V470.392C381.64 474.488 380.104 478.072 377.032 481.144C374.301 483.875 370.888 485.24 366.792 485.24H350.408C346.312 485.24 342.728 483.875 339.656 481.144C336.925 478.072 335.56 474.488 335.56 470.392V454.008C335.56 449.912 336.925 446.499 339.656 443.768C342.728 440.696 346.312 439.16 350.408 439.16ZM555.208 439.16H571.592C575.688 439.16 579.101 440.696 581.832 443.768C584.904 446.499 586.44 449.912 586.44 454.008V470.392C586.44 474.488 584.904 478.072 581.832 481.144C579.101 483.875 575.688 485.24 571.592 485.24H555.208C551.112 485.24 547.528 483.875 544.456 481.144C541.725 478.072 540.36 474.488 540.36 470.392V454.008C540.36 449.912 541.725 446.499 544.456 443.768C547.528 440.696 551.112 439.16 555.208 439.16ZM350.408 490.36H366.792C370.888 490.36 374.301 491.896 377.032 494.968C380.104 497.699 381.64 501.112 381.64 505.208V521.592C381.64 525.688 380.104 529.272 377.032 532.344C374.301 535.075 370.888 536.44 366.792 536.44H350.408C346.312 536.44 342.728 535.075 339.656 532.344C336.925 529.272 335.56 525.688 335.56 521.592V505.208C335.56 501.112 336.925 497.699 339.656 494.968C342.728 491.896 346.312 490.36 350.408 490.36ZM555.208 490.36H571.592C575.688 490.36 579.101 491.896 581.832 494.968C584.904 497.699 586.44 501.112 586.44 505.208V521.592C586.44 525.688 584.904 529.272 581.832 532.344C579.101 535.075 575.688 536.44 571.592 536.44H555.208C551.112 536.44 547.528 535.075 544.456 532.344C541.725 529.272 540.36 525.688 540.36 521.592V505.208C540.36 501.112 541.725 497.699 544.456 494.968C547.528 491.896 551.112 490.36 555.208 490.36ZM708.608 183.16H724.992C729.088 183.16 732.501 184.696 735.232 187.768C738.304 190.499 739.84 193.912 739.84 198.008V214.392C739.84 218.488 738.304 222.072 735.232 225.144C732.501 227.875 729.088 229.24 724.992 229.24H708.608C704.512 229.24 700.928 227.875 697.856 225.144C695.125 222.072 693.76 218.488 693.76 214.392V198.008C693.76 193.912 695.125 190.499 697.856 187.768C700.928 184.696 704.512 183.16 708.608 183.16ZM759.808 183.16H776.192C780.288 183.16 783.701 184.696 786.432 187.768C789.504 190.499 791.04 193.912 791.04 198.008V214.392C791.04 218.488 789.504 222.072 786.432 225.144C783.701 227.875 780.288 229.24 776.192 229.24H759.808C755.712 229.24 752.128 227.875 749.056 225.144C746.325 222.072 744.96 218.488 744.96 214.392V198.008C744.96 193.912 746.325 190.499 749.056 187.768C752.128 184.696 755.712 183.16 759.808 183.16ZM811.008 183.16H827.392C831.488 183.16 834.901 184.696 837.632 187.768C840.704 190.499 842.24 193.912 842.24 198.008V214.392C842.24 218.488 840.704 222.072 837.632 225.144C834.901 227.875 831.488 229.24 827.392 229.24H811.008C806.912 229.24 803.328 227.875 800.256 225.144C797.525 222.072 796.16 218.488 796.16 214.392V198.008C796.16 193.912 797.525 190.499 800.256 187.768C803.328 184.696 806.912 183.16 811.008 183.16ZM657.408 234.36H673.792C677.888 234.36 681.301 235.896 684.032 238.968C687.104 241.699 688.64 245.112 688.64 249.208V265.592C688.64 269.688 687.104 273.272 684.032 276.344C681.301 279.075 677.888 280.44 673.792 280.44H657.408C653.312 280.44 649.728 279.075 646.656 276.344C643.925 273.272 642.56 269.688 642.56 265.592V249.208C642.56 245.112 643.925 241.699 646.656 238.968C649.728 235.896 653.312 234.36 657.408 234.36ZM862.208 234.36H878.592C882.688 234.36 886.101 235.896 888.832 238.968C891.904 241.699 893.44 245.112 893.44 249.208V265.592C893.44 269.688 891.904 273.272 888.832 276.344C886.101 279.075 882.688 280.44 878.592 280.44H862.208C858.112 280.44 854.528 279.075 851.456 276.344C848.725 273.272 847.36 269.688 847.36 265.592V249.208C847.36 245.112 848.725 241.699 851.456 238.968C854.528 235.896 858.112 234.36 862.208 234.36ZM657.408 285.56H673.792C677.888 285.56 681.301 287.096 684.032 290.168C687.104 292.899 688.64 296.312 688.64 300.408V316.792C688.64 320.888 687.104 324.472 684.032 327.544C681.301 330.275 677.888 331.64 673.792 331.64H657.408C653.312 331.64 649.728 330.275 646.656 327.544C643.925 324.472 642.56 320.888 642.56 316.792V300.408C642.56 296.312 643.925 292.899 646.656 290.168C649.728 287.096 653.312 285.56 657.408 285.56ZM708.608 336.76H724.992C729.088 336.76 732.501 338.296 735.232 341.368C738.304 344.099 739.84 347.512 739.84 351.608V367.992C739.84 372.088 738.304 375.672 735.232 378.744C732.501 381.475 729.088 382.84 724.992 382.84H708.608C704.512 382.84 700.928 381.475 697.856 378.744C695.125 375.672 693.76 372.088 693.76 367.992V351.608C693.76 347.512 695.125 344.099 697.856 341.368C700.928 338.296 704.512 336.76 708.608 336.76ZM759.808 336.76H776.192C780.288 336.76 783.701 338.296 786.432 341.368C789.504 344.099 791.04 347.512 791.04 351.608V367.992C791.04 372.088 789.504 375.672 786.432 378.744C783.701 381.475 780.288 382.84 776.192 382.84H759.808C755.712 382.84 752.128 381.475 749.056 378.744C746.325 375.672 744.96 372.088 744.96 367.992V351.608C744.96 347.512 746.325 344.099 749.056 341.368C752.128 338.296 755.712 336.76 759.808 336.76ZM811.008 336.76H827.392C831.488 336.76 834.901 338.296 837.632 341.368C840.704 344.099 842.24 347.512 842.24 351.608V367.992C842.24 372.088 840.704 375.672 837.632 378.744C834.901 381.475 831.488 382.84 827.392 382.84H811.008C806.912 382.84 803.328 381.475 800.256 378.744C797.525 375.672 796.16 372.088 796.16 367.992V351.608C796.16 347.512 797.525 344.099 800.256 341.368C803.328 338.296 806.912 336.76 811.008 336.76ZM862.208 387.96H878.592C882.688 387.96 886.101 389.496 888.832 392.568C891.904 395.299 893.44 398.712 893.44 402.808V419.192C893.44 423.288 891.904 426.872 888.832 429.944C886.101 432.675 882.688 434.04 878.592 434.04H862.208C858.112 434.04 854.528 432.675 851.456 429.944C848.725 426.872 847.36 423.288 847.36 419.192V402.808C847.36 398.712 848.725 395.299 851.456 392.568C854.528 389.496 858.112 387.96 862.208 387.96ZM657.408 439.16H673.792C677.888 439.16 681.301 440.696 684.032 443.768C687.104 446.499 688.64 449.912 688.64 454.008V470.392C688.64 474.488 687.104 478.072 684.032 481.144C681.301 483.875 677.888 485.24 673.792 485.24H657.408C653.312 485.24 649.728 483.875 646.656 481.144C643.925 478.072 642.56 474.488 642.56 470.392V454.008C642.56 449.912 643.925 446.499 646.656 443.768C649.728 440.696 653.312 439.16 657.408 439.16ZM862.208 439.16H878.592C882.688 439.16 886.101 440.696 888.832 443.768C891.904 446.499 893.44 449.912 893.44 454.008V470.392C893.44 474.488 891.904 478.072 888.832 481.144C886.101 483.875 882.688 485.24 878.592 485.24H862.208C858.112 485.24 854.528 483.875 851.456 481.144C848.725 478.072 847.36 474.488 847.36 470.392V454.008C847.36 449.912 848.725 446.499 851.456 443.768C854.528 440.696 858.112 439.16 862.208 439.16ZM708.608 490.36H724.992C729.088 490.36 732.501 491.896 735.232 494.968C738.304 497.699 739.84 501.112 739.84 505.208V521.592C739.84 525.688 738.304 529.272 735.232 532.344C732.501 535.075 729.088 536.44 724.992 536.44H708.608C704.512 536.44 700.928 535.075 697.856 532.344C695.125 529.272 693.76 525.688 693.76 521.592V505.208C693.76 501.112 695.125 497.699 697.856 494.968C700.928 491.896 704.512 490.36 708.608 490.36ZM759.808 490.36H776.192C780.288 490.36 783.701 491.896 786.432 494.968C789.504 497.699 791.04 501.112 791.04 505.208V521.592C791.04 525.688 789.504 529.272 786.432 532.344C783.701 535.075 780.288 536.44 776.192 536.44H759.808C755.712 536.44 752.128 535.075 749.056 532.344C746.325 529.272 744.96 525.688 744.96 521.592V505.208C744.96 501.112 746.325 497.699 749.056 494.968C752.128 491.896 755.712 490.36 759.808 490.36ZM811.008 490.36H827.392C831.488 490.36 834.901 491.896 837.632 494.968C840.704 497.699 842.24 501.112 842.24 505.208V521.592C842.24 525.688 840.704 529.272 837.632 532.344C834.901 535.075 831.488 536.44 827.392 536.44H811.008C806.912 536.44 803.328 535.075 800.256 532.344C797.525 529.272 796.16 525.688 796.16 521.592V505.208C796.16 501.112 797.525 497.699 800.256 494.968C803.328 491.896 806.912 490.36 811.008 490.36ZM1066.81 183.16H1083.19C1087.29 183.16 1090.7 184.696 1093.43 187.768C1096.5 190.499 1098.04 193.912 1098.04 198.008V214.392C1098.04 218.488 1096.5 222.072 1093.43 225.144C1090.7 227.875 1087.29 229.24 1083.19 229.24H1066.81C1062.71 229.24 1059.13 227.875 1056.06 225.144C1053.33 222.072 1051.96 218.488 1051.96 214.392V198.008C1051.96 193.912 1053.33 190.499 1056.06 187.768C1059.13 184.696 1062.71 183.16 1066.81 183.16ZM1015.61 234.36H1031.99C1036.09 234.36 1039.5 235.896 1042.23 238.968C1045.3 241.699 1046.84 245.112 1046.84 249.208V265.592C1046.84 269.688 1045.3 273.272 1042.23 276.344C1039.5 279.075 1036.09 280.44 1031.99 280.44H1015.61C1011.51 280.44 1007.93 279.075 1004.86 276.344C1002.13 273.272 1000.76 269.688 1000.76 265.592V249.208C1000.76 245.112 1002.13 241.699 1004.86 238.968C1007.93 235.896 1011.51 234.36 1015.61 234.36ZM1118.01 234.36H1134.39C1138.49 234.36 1141.9 235.896 1144.63 238.968C1147.7 241.699 1149.24 245.112 1149.24 249.208V265.592C1149.24 269.688 1147.7 273.272 1144.63 276.344C1141.9 279.075 1138.49 280.44 1134.39 280.44H1118.01C1113.91 280.44 1110.33 279.075 1107.26 276.344C1104.53 273.272 1103.16 269.688 1103.16 265.592V249.208C1103.16 245.112 1104.53 241.699 1107.26 238.968C1110.33 235.896 1113.91 234.36 1118.01 234.36ZM964.408 285.56H980.792C984.888 285.56 988.301 287.096 991.032 290.168C994.104 292.899 995.64 296.312 995.64 300.408V316.792C995.64 320.888 994.104 324.472 991.032 327.544C988.301 330.275 984.888 331.64 980.792 331.64H964.408C960.312 331.64 956.728 330.275 953.656 327.544C950.925 324.472 949.56 320.888 949.56 316.792V300.408C949.56 296.312 950.925 292.899 953.656 290.168C956.728 287.096 960.312 285.56 964.408 285.56ZM1169.21 285.56H1185.59C1189.69 285.56 1193.1 287.096 1195.83 290.168C1198.9 292.899 1200.44 296.312 1200.44 300.408V316.792C1200.44 320.888 1198.9 324.472 1195.83 327.544C1193.1 330.275 1189.69 331.64 1185.59 331.64H1169.21C1165.11 331.64 1161.53 330.275 1158.46 327.544C1155.73 324.472 1154.36 320.888 1154.36 316.792V300.408C1154.36 296.312 1155.73 292.899 1158.46 290.168C1161.53 287.096 1165.11 285.56 1169.21 285.56ZM964.408 336.76H980.792C984.888 336.76 988.301 338.296 991.032 341.368C994.104 344.099 995.64 347.512 995.64 351.608V367.992C995.64 372.088 994.104 375.672 991.032 378.744C988.301 381.475 984.888 382.84 980.792 382.84H964.408C960.312 382.84 956.728 381.475 953.656 378.744C950.925 375.672 949.56 372.088 949.56 367.992V351.608C949.56 347.512 950.925 344.099 953.656 341.368C956.728 338.296 960.312 336.76 964.408 336.76ZM1169.21 336.76H1185.59C1189.69 336.76 1193.1 338.296 1195.83 341.368C1198.9 344.099 1200.44 347.512 1200.44 351.608V367.992C1200.44 372.088 1198.9 375.672 1195.83 378.744C1193.1 381.475 1189.69 382.84 1185.59 382.84H1169.21C1165.11 382.84 1161.53 381.475 1158.46 378.744C1155.73 375.672 1154.36 372.088 1154.36 367.992V351.608C1154.36 347.512 1155.73 344.099 1158.46 341.368C1161.53 338.296 1165.11 336.76 1169.21 336.76ZM964.408 387.96H980.792C984.888 387.96 988.301 389.496 991.032 392.568C994.104 395.299 995.64 398.712 995.64 402.808V419.192C995.64 423.288 994.104 426.872 991.032 429.944C988.301 432.675 984.888 434.04 980.792 434.04H964.408C960.312 434.04 956.728 432.675 953.656 429.944C950.925 426.872 949.56 423.288 949.56 419.192V402.808C949.56 398.712 950.925 395.299 953.656 392.568C956.728 389.496 960.312 387.96 964.408 387.96ZM1015.61 387.96H1031.99C1036.09 387.96 1039.5 389.496 1042.23 392.568C1045.3 395.299 1046.84 398.712 1046.84 402.808V419.192C1046.84 423.288 1045.3 426.872 1042.23 429.944C1039.5 432.675 1036.09 434.04 1031.99 434.04H1015.61C1011.51 434.04 1007.93 432.675 1004.86 429.944C1002.13 426.872 1000.76 423.288 1000.76 419.192V402.808C1000.76 398.712 1002.13 395.299 1004.86 392.568C1007.93 389.496 1011.51 387.96 1015.61 387.96ZM1066.81 387.96H1083.19C1087.29 387.96 1090.7 389.496 1093.43 392.568C1096.5 395.299 1098.04 398.712 1098.04 402.808V419.192C1098.04 423.288 1096.5 426.872 1093.43 429.944C1090.7 432.675 1087.29 434.04 1083.19 434.04H1066.81C1062.71 434.04 1059.13 432.675 1056.06 429.944C1053.33 426.872 1051.96 423.288 1051.96 419.192V402.808C1051.96 398.712 1053.33 395.299 1056.06 392.568C1059.13 389.496 1062.71 387.96 1066.81 387.96ZM1118.01 387.96H1134.39C1138.49 387.96 1141.9 389.496 1144.63 392.568C1147.7 395.299 1149.24 398.712 1149.24 402.808V419.192C1149.24 423.288 1147.7 426.872 1144.63 429.944C1141.9 432.675 1138.49 434.04 1134.39 434.04H1118.01C1113.91 434.04 1110.33 432.675 1107.26 429.944C1104.53 426.872 1103.16 423.288 1103.16 419.192V402.808C1103.16 398.712 1104.53 395.299 1107.26 392.568C1110.33 389.496 1113.91 387.96 1118.01 387.96ZM1169.21 387.96H1185.59C1189.69 387.96 1193.1 389.496 1195.83 392.568C1198.9 395.299 1200.44 398.712 1200.44 402.808V419.192C1200.44 423.288 1198.9 426.872 1195.83 429.944C1193.1 432.675 1189.69 434.04 1185.59 434.04H1169.21C1165.11 434.04 1161.53 432.675 1158.46 429.944C1155.73 426.872 1154.36 423.288 1154.36 419.192V402.808C1154.36 398.712 1155.73 395.299 1158.46 392.568C1161.53 389.496 1165.11 387.96 1169.21 387.96ZM964.408 439.16H980.792C984.888 439.16 988.301 440.696 991.032 443.768C994.104 446.499 995.64 449.912 995.64 454.008V470.392C995.64 474.488 994.104 478.072 991.032 481.144C988.301 483.875 984.888 485.24 980.792 485.24H964.408C960.312 485.24 956.728 483.875 953.656 481.144C950.925 478.072 949.56 474.488 949.56 470.392V454.008C949.56 449.912 950.925 446.499 953.656 443.768C956.728 440.696 960.312 439.16 964.408 439.16ZM1169.21 439.16H1185.59C1189.69 439.16 1193.1 440.696 1195.83 443.768C1198.9 446.499 1200.44 449.912 1200.44 454.008V470.392C1200.44 474.488 1198.9 478.072 1195.83 481.144C1193.1 483.875 1189.69 485.24 1185.59 485.24H1169.21C1165.11 485.24 1161.53 483.875 1158.46 481.144C1155.73 478.072 1154.36 474.488 1154.36 470.392V454.008C1154.36 449.912 1155.73 446.499 1158.46 443.768C1161.53 440.696 1165.11 439.16 1169.21 439.16ZM964.408 490.36H980.792C984.888 490.36 988.301 491.896 991.032 494.968C994.104 497.699 995.64 501.112 995.64 505.208V521.592C995.64 525.688 994.104 529.272 991.032 532.344C988.301 535.075 984.888 536.44 980.792 536.44H964.408C960.312 536.44 956.728 535.075 953.656 532.344C950.925 529.272 949.56 525.688 949.56 521.592V505.208C949.56 501.112 950.925 497.699 953.656 494.968C956.728 491.896 960.312 490.36 964.408 490.36ZM1169.21 490.36H1185.59C1189.69 490.36 1193.1 491.896 1195.83 494.968C1198.9 497.699 1200.44 501.112 1200.44 505.208V521.592C1200.44 525.688 1198.9 529.272 1195.83 532.344C1193.1 535.075 1189.69 536.44 1185.59 536.44H1169.21C1165.11 536.44 1161.53 535.075 1158.46 532.344C1155.73 529.272 1154.36 525.688 1154.36 521.592V505.208C1154.36 501.112 1155.73 497.699 1158.46 494.968C1161.53 491.896 1165.11 490.36 1169.21 490.36Z" fill="black"/>
</svg>
